<mxfile host="app.diagrams.net" modified="2021-01-04T06:55:16.696Z" agent="5.0 (Macintosh; Intel Mac OS X 11_0_1) AppleWebKit/537.36 (KHTML, like Gecko) Chrome/87.0.4280.88 Safari/537.36" etag="4DFKrkCDyR2iM08VOVEJ" version="14.1.4" type="github">
  <diagram name="Copy of Page-2" id="e97Mi3D0plznNzVCBhgD">
    <mxGraphModel dx="1261" dy="819" grid="1" gridSize="10" guides="1" tooltips="1" connect="1" arrows="1" fold="1" page="1" pageScale="1" pageWidth="1100" pageHeight="850" background="#F8DFE2" math="0" shadow="0">
      <root>
        <mxCell id="2Hegsr20NqXobKJcIY7s-0" />
        <mxCell id="2Hegsr20NqXobKJcIY7s-1" parent="2Hegsr20NqXobKJcIY7s-0" />
        <mxCell id="-tYl4JRF3hjD-ErTfFmR-0" style="edgeStyle=orthogonalEdgeStyle;rounded=0;orthogonalLoop=1;jettySize=auto;html=1;exitX=1;exitY=0.5;exitDx=0;exitDy=0;" parent="2Hegsr20NqXobKJcIY7s-1" source="2Hegsr20NqXobKJcIY7s-2" edge="1">
          <mxGeometry relative="1" as="geometry">
            <mxPoint x="2300" y="850" as="targetPoint" />
          </mxGeometry>
        </mxCell>
        <mxCell id="2Hegsr20NqXobKJcIY7s-2" value="" style="shape=ext;rounded=1;html=1;whiteSpace=wrap;double=1;shadow=0;glass=0;labelBackgroundColor=#F8CECC;gradientColor=#ffffff;fontFamily=Comic Sans MS;fontSize=12;fillColor=#F8CECC;fontColor=#660000;labelBorderColor=#660000;strokeColor=#660000;sketch=0;" parent="2Hegsr20NqXobKJcIY7s-1" vertex="1">
          <mxGeometry x="570" y="60" width="1530" height="1580" as="geometry" />
        </mxCell>
        <mxCell id="2Hegsr20NqXobKJcIY7s-3" value="" style="whiteSpace=wrap;html=1;aspect=fixed;shadow=0;glass=0;labelBackgroundColor=#F8CECC;fillColor=#F8CECC;gradientColor=#ffffff;fontFamily=Comic Sans MS;fontSize=12;fontColor=#660000;strokeColor=#B85450;rounded=1;" parent="2Hegsr20NqXobKJcIY7s-1" vertex="1">
          <mxGeometry x="690" y="200" width="1365" height="1365" as="geometry" />
        </mxCell>
        <mxCell id="2Hegsr20NqXobKJcIY7s-4" style="edgeStyle=elbowEdgeStyle;rounded=0;orthogonalLoop=1;jettySize=auto;elbow=vertical;html=1;endArrow=block;endFill=1;strokeColor=#b85450;fontFamily=Comic Sans MS;fontSize=35;fontColor=#660000;fillColor=#f8cecc;entryX=0.107;entryY=0.507;entryDx=0;entryDy=0;entryPerimeter=0;" parent="2Hegsr20NqXobKJcIY7s-1" source="2Hegsr20NqXobKJcIY7s-59" target="2Hegsr20NqXobKJcIY7s-10" edge="1">
          <mxGeometry relative="1" as="geometry">
            <mxPoint x="100" y="900" as="sourcePoint" />
            <Array as="points">
              <mxPoint x="140" y="720" />
              <mxPoint x="110" y="710" />
            </Array>
          </mxGeometry>
        </mxCell>
        <mxCell id="2Hegsr20NqXobKJcIY7s-5" style="edgeStyle=none;rounded=0;orthogonalLoop=1;jettySize=auto;html=1;entryX=0;entryY=0.5;entryDx=0;entryDy=0;endArrow=block;endFill=1;strokeColor=#FF0000;strokeWidth=3;fontFamily=Comic Sans MS;fontSize=10;fontColor=#FF0000;" parent="2Hegsr20NqXobKJcIY7s-1" source="2Hegsr20NqXobKJcIY7s-6" target="2Hegsr20NqXobKJcIY7s-58" edge="1">
          <mxGeometry relative="1" as="geometry" />
        </mxCell>
        <mxCell id="2Hegsr20NqXobKJcIY7s-6" value="" style="aspect=fixed;pointerEvents=1;shadow=0;dashed=0;html=1;strokeColor=#b85450;labelPosition=center;verticalLabelPosition=bottom;verticalAlign=top;align=center;fillColor=#f8cecc;shape=mxgraph.azure.computer;labelBackgroundColor=#FFCCCC;whiteSpace=wrap;" parent="2Hegsr20NqXobKJcIY7s-1" vertex="1">
          <mxGeometry x="40" y="910.9" width="190" height="171.01" as="geometry" />
        </mxCell>
        <mxCell id="2Hegsr20NqXobKJcIY7s-7" value="&lt;font face=&quot;Comic Sans MS&quot; color=&quot;#660000&quot; style=&quot;font-size: 20px;&quot;&gt;Workstation&lt;/font&gt;" style="text;html=1;strokeColor=none;fillColor=none;align=center;verticalAlign=middle;whiteSpace=wrap;rounded=0;fontSize=20;" parent="2Hegsr20NqXobKJcIY7s-1" vertex="1">
          <mxGeometry x="85" y="955" width="80" height="40" as="geometry" />
        </mxCell>
        <mxCell id="2Hegsr20NqXobKJcIY7s-8" value="IP Address: The IP Address of the host machin" style="text;html=1;strokeColor=none;fillColor=none;align=center;verticalAlign=middle;whiteSpace=wrap;rounded=0;labelBackgroundColor=#FFCCCC;fontFamily=Comic Sans MS;fontColor=#660000;fontSize=19;" parent="2Hegsr20NqXobKJcIY7s-1" vertex="1">
          <mxGeometry x="50" y="1110" width="180" height="30" as="geometry" />
        </mxCell>
        <mxCell id="2Hegsr20NqXobKJcIY7s-9" style="edgeStyle=elbowEdgeStyle;rounded=0;orthogonalLoop=1;jettySize=auto;html=1;endArrow=block;endFill=1;fontFamily=Comic Sans MS;fontSize=10;fontColor=#660000;exitX=0.625;exitY=0.2;exitDx=0;exitDy=0;exitPerimeter=0;fillColor=#f8cecc;strokeWidth=3;strokeColor=#FF0000;" parent="2Hegsr20NqXobKJcIY7s-1" source="2Hegsr20NqXobKJcIY7s-10" edge="1">
          <mxGeometry relative="1" as="geometry">
            <mxPoint x="730" y="550" as="targetPoint" />
            <Array as="points">
              <mxPoint x="340" y="580" />
            </Array>
          </mxGeometry>
        </mxCell>
        <mxCell id="2Hegsr20NqXobKJcIY7s-10" value="" style="ellipse;shape=cloud;whiteSpace=wrap;html=1;fillColor=#f8cecc;strokeColor=#b85450;" parent="2Hegsr20NqXobKJcIY7s-1" vertex="1">
          <mxGeometry x="180" y="650" width="240" height="140" as="geometry" />
        </mxCell>
        <mxCell id="2Hegsr20NqXobKJcIY7s-11" value="&lt;span style=&quot;font-size: 19px&quot;&gt;&lt;br style=&quot;font-size: 19px&quot;&gt;&lt;/span&gt;" style="text;html=1;strokeColor=none;fillColor=none;align=center;verticalAlign=middle;whiteSpace=wrap;rounded=0;labelBackgroundColor=#FFCCCC;fontFamily=Comic Sans MS;fontColor=#660000;fontSize=19;" parent="2Hegsr20NqXobKJcIY7s-1" vertex="1">
          <mxGeometry x="150" y="800" width="60" height="20" as="geometry" />
        </mxCell>
        <mxCell id="2Hegsr20NqXobKJcIY7s-12" value="" style="edgeStyle=elbowEdgeStyle;rounded=0;orthogonalLoop=1;jettySize=auto;elbow=vertical;html=1;endArrow=block;endFill=1;fontFamily=Comic Sans MS;fontSize=35;fontColor=#660000;fillColor=#f8cecc;strokeColor=#b85450;exitX=0.875;exitY=0.5;exitDx=0;exitDy=0;exitPerimeter=0;" parent="2Hegsr20NqXobKJcIY7s-1" source="2Hegsr20NqXobKJcIY7s-10" target="2Hegsr20NqXobKJcIY7s-15" edge="1">
          <mxGeometry relative="1" as="geometry" />
        </mxCell>
        <mxCell id="2Hegsr20NqXobKJcIY7s-13" value="Internet" style="text;html=1;strokeColor=none;fillColor=none;align=center;verticalAlign=middle;whiteSpace=wrap;rounded=0;labelBackgroundColor=#FFCCCC;fontFamily=Comic Sans MS;fontColor=#660000;fontSize=20;" parent="2Hegsr20NqXobKJcIY7s-1" vertex="1">
          <mxGeometry x="250" y="707.5" width="110" height="40" as="geometry" />
        </mxCell>
        <mxCell id="2Hegsr20NqXobKJcIY7s-14" style="rounded=0;orthogonalLoop=1;jettySize=auto;html=1;endArrow=block;endFill=1;strokeColor=#b85450;fontFamily=Comic Sans MS;fontSize=18;fontColor=#660000;fillColor=#f8cecc;edgeStyle=orthogonalEdgeStyle;" parent="2Hegsr20NqXobKJcIY7s-1" source="2Hegsr20NqXobKJcIY7s-15" target="2Hegsr20NqXobKJcIY7s-33" edge="1">
          <mxGeometry relative="1" as="geometry">
            <Array as="points">
              <mxPoint x="770" y="820" />
              <mxPoint x="755" y="820" />
            </Array>
          </mxGeometry>
        </mxCell>
        <mxCell id="2Hegsr20NqXobKJcIY7s-15" value="" style="verticalAlign=top;verticalLabelPosition=bottom;labelPosition=center;align=center;html=1;outlineConnect=0;fillColor=#f8cecc;gradientDirection=north;strokeWidth=2;shape=mxgraph.networks.firewall;labelBackgroundColor=#FFFFFF;strokeColor=#B85450;" parent="2Hegsr20NqXobKJcIY7s-1" vertex="1">
          <mxGeometry x="660" y="675" width="160" height="105" as="geometry" />
        </mxCell>
        <mxCell id="2Hegsr20NqXobKJcIY7s-16" value="SSH" style="text;html=1;strokeColor=none;fillColor=none;align=center;verticalAlign=middle;whiteSpace=wrap;rounded=0;labelBackgroundColor=#FFCCCC;fontFamily=Comic Sans MS;fontSize=22;fontColor=#660000;" parent="2Hegsr20NqXobKJcIY7s-1" vertex="1">
          <mxGeometry x="420" y="691" width="110" height="20" as="geometry" />
        </mxCell>
        <mxCell id="2Hegsr20NqXobKJcIY7s-17" value="Zeinab-FW&lt;br style=&quot;font-size: 15px;&quot;&gt;(Firewall)" style="text;html=1;strokeColor=none;fillColor=none;align=center;verticalAlign=middle;whiteSpace=wrap;rounded=0;labelBackgroundColor=#F8CECC;fontFamily=Comic Sans MS;fontSize=15;fontColor=#660000;" parent="2Hegsr20NqXobKJcIY7s-1" vertex="1">
          <mxGeometry x="695" y="790" width="100" height="20" as="geometry" />
        </mxCell>
        <mxCell id="2Hegsr20NqXobKJcIY7s-18" style="edgeStyle=elbowEdgeStyle;rounded=0;orthogonalLoop=1;jettySize=auto;html=1;endArrow=block;endFill=1;strokeColor=#000000;fontFamily=Comic Sans MS;fontSize=12;fontColor=#660000;" parent="2Hegsr20NqXobKJcIY7s-1" source="2Hegsr20NqXobKJcIY7s-21" target="2Hegsr20NqXobKJcIY7s-3" edge="1">
          <mxGeometry relative="1" as="geometry" />
        </mxCell>
        <mxCell id="2Hegsr20NqXobKJcIY7s-19" style="edgeStyle=elbowEdgeStyle;rounded=0;orthogonalLoop=1;jettySize=auto;html=1;exitX=0.5;exitY=0;exitDx=0;exitDy=0;exitPerimeter=0;endArrow=block;endFill=1;strokeColor=#000000;fontFamily=Comic Sans MS;fontSize=18;fontColor=#660000;" parent="2Hegsr20NqXobKJcIY7s-1" source="2Hegsr20NqXobKJcIY7s-21" target="2Hegsr20NqXobKJcIY7s-3" edge="1">
          <mxGeometry relative="1" as="geometry" />
        </mxCell>
        <mxCell id="2Hegsr20NqXobKJcIY7s-20" style="edgeStyle=orthogonalEdgeStyle;rounded=0;orthogonalLoop=1;jettySize=auto;html=1;endArrow=block;endFill=1;strokeColor=#b85450;fontFamily=Comic Sans MS;fontSize=14;fontColor=#660000;fillColor=#f8cecc;" parent="2Hegsr20NqXobKJcIY7s-1" source="2Hegsr20NqXobKJcIY7s-21" edge="1">
          <mxGeometry relative="1" as="geometry">
            <mxPoint x="906" y="1001" as="targetPoint" />
          </mxGeometry>
        </mxCell>
        <mxCell id="2Hegsr20NqXobKJcIY7s-21" value="" style="aspect=fixed;pointerEvents=1;shadow=0;dashed=0;html=1;strokeColor=#b85450;labelPosition=center;verticalLabelPosition=bottom;verticalAlign=top;align=center;fillColor=#f8cecc;shape=mxgraph.azure.virtual_machine_feature;labelBackgroundColor=#FFFFFF;fontFamily=Comic Sans MS;fontSize=12;" parent="2Hegsr20NqXobKJcIY7s-1" vertex="1">
          <mxGeometry x="710" y="950" width="113.43" height="102.09" as="geometry" />
        </mxCell>
        <mxCell id="2Hegsr20NqXobKJcIY7s-22" value="Jump-Box-Provisions VM with Ansible&lt;br style=&quot;font-size: 16px;&quot;&gt;&lt;font style=&quot;font-size: 16px;&quot;&gt;Public IP: 52.188.9.8&lt;br style=&quot;font-size: 16px;&quot;&gt;&lt;/font&gt;&lt;font style=&quot;font-size: 16px;&quot;&gt;Private IP: 10.0.1.6&lt;/font&gt;" style="text;html=1;strokeColor=#b85450;align=center;verticalAlign=middle;whiteSpace=wrap;rounded=0;labelBackgroundColor=#F8CECC;fontFamily=Comic Sans MS;fontSize=16;fillColor=#F8CECC;fontColor=#660000;" parent="2Hegsr20NqXobKJcIY7s-1" vertex="1">
          <mxGeometry x="695" y="1110" width="150" height="20" as="geometry" />
        </mxCell>
        <mxCell id="2Hegsr20NqXobKJcIY7s-23" value="&lt;h1 style=&quot;font-size: 35px&quot;&gt;Resource group - Zeinab&lt;/h1&gt;" style="text;html=1;strokeColor=none;fillColor=none;spacing=5;spacingTop=-20;whiteSpace=wrap;overflow=hidden;rounded=0;shadow=0;glass=0;labelBackgroundColor=#F8CECC;fontFamily=Comic Sans MS;fontSize=35;fontColor=#660000;fontStyle=0;verticalAlign=middle;" parent="2Hegsr20NqXobKJcIY7s-1" vertex="1">
          <mxGeometry x="730" y="100" width="710" height="70" as="geometry" />
        </mxCell>
        <mxCell id="2Hegsr20NqXobKJcIY7s-24" value="&lt;h1 style=&quot;font-size: 22px;&quot;&gt;Virtual Network: Zeinab-Network&lt;/h1&gt;&lt;h1 style=&quot;font-size: 22px;&quot;&gt;Zeinab-Subnet: 10.0.1.0/24 (248 available)&amp;nbsp;&lt;/h1&gt;&lt;h1 style=&quot;font-size: 22px;&quot;&gt;IP Address space: 10.0.0.0/16&lt;/h1&gt;" style="text;html=1;strokeColor=none;fillColor=none;spacing=5;spacingTop=-20;whiteSpace=wrap;overflow=hidden;rounded=0;shadow=0;glass=0;labelBackgroundColor=#F8CECC;fontFamily=Comic Sans MS;fontSize=22;fontColor=#660000;fontStyle=0;verticalAlign=middle;" parent="2Hegsr20NqXobKJcIY7s-1" vertex="1">
          <mxGeometry x="820" y="240" width="720" height="120" as="geometry" />
        </mxCell>
        <mxCell id="2Hegsr20NqXobKJcIY7s-25" value="&lt;h1 style=&quot;font-size: 14px;&quot;&gt;Load Balancer&lt;/h1&gt;&lt;div style=&quot;font-size: 14px;&quot;&gt;Public IP: 52.188.9.8&lt;/div&gt;" style="text;html=1;strokeColor=none;fillColor=none;spacing=5;spacingTop=-20;whiteSpace=wrap;overflow=hidden;rounded=0;shadow=0;glass=0;labelBackgroundColor=#F8CECC;fontFamily=Comic Sans MS;fontSize=14;fontColor=#660000;fontStyle=0;verticalAlign=middle;align=center;" parent="2Hegsr20NqXobKJcIY7s-1" vertex="1">
          <mxGeometry x="757.95" y="450" width="155.88" height="51" as="geometry" />
        </mxCell>
        <mxCell id="2Hegsr20NqXobKJcIY7s-26" style="edgeStyle=orthogonalEdgeStyle;rounded=0;orthogonalLoop=1;jettySize=auto;html=1;entryX=0;entryY=0.5;entryDx=0;entryDy=0;entryPerimeter=0;endArrow=block;endFill=1;fontFamily=Comic Sans MS;fontSize=18;fontColor=#660000;fillColor=#f8cecc;strokeWidth=3;strokeColor=#FF0000;" parent="2Hegsr20NqXobKJcIY7s-1" source="2Hegsr20NqXobKJcIY7s-27" target="2Hegsr20NqXobKJcIY7s-42" edge="1">
          <mxGeometry relative="1" as="geometry">
            <Array as="points">
              <mxPoint x="815" y="636" />
              <mxPoint x="700" y="636" />
              <mxPoint x="700" y="728" />
            </Array>
          </mxGeometry>
        </mxCell>
        <mxCell id="2Hegsr20NqXobKJcIY7s-27" value="" style="verticalAlign=top;verticalLabelPosition=bottom;labelPosition=center;align=center;html=1;outlineConnect=0;fillColor=#f8cecc;strokeColor=#b85450;gradientDirection=north;strokeWidth=2;shape=mxgraph.networks.load_balancer;shadow=0;glass=0;labelBackgroundColor=#F8CECC;" parent="2Hegsr20NqXobKJcIY7s-1" vertex="1">
          <mxGeometry x="740" y="509" width="230" height="90" as="geometry" />
        </mxCell>
        <mxCell id="2Hegsr20NqXobKJcIY7s-28" value="" style="aspect=fixed;html=1;points=[];align=center;image;fontSize=12;image=img/lib/azure2/networking/Network_Security_Groups.svg;shadow=0;glass=0;labelBackgroundColor=#F8CECC;strokeColor=#B85450;fillColor=#F8CECC;gradientColor=#ffffff;" parent="2Hegsr20NqXobKJcIY7s-1" vertex="1">
          <mxGeometry x="750.36" y="549" width="21.41" height="26" as="geometry" />
        </mxCell>
        <mxCell id="2Hegsr20NqXobKJcIY7s-29" value="nsg: Jumpbox-Provision-nsg" style="text;html=1;strokeColor=none;fillColor=none;align=center;verticalAlign=middle;whiteSpace=wrap;rounded=0;shadow=0;glass=0;labelBackgroundColor=#F8CECC;fontFamily=Comic Sans MS;fontSize=10;fontColor=#660000;" parent="2Hegsr20NqXobKJcIY7s-1" vertex="1">
          <mxGeometry x="771.77" y="549" width="128.23" height="21" as="geometry" />
        </mxCell>
        <mxCell id="2Hegsr20NqXobKJcIY7s-31" value="" style="rounded=1;whiteSpace=wrap;html=1;shadow=0;glass=0;labelBackgroundColor=#F8CECC;strokeColor=#B85450;fillColor=#F8CECC;gradientColor=#ffffff;fontFamily=Comic Sans MS;fontSize=18;fontColor=#660000;align=center;" parent="2Hegsr20NqXobKJcIY7s-1" vertex="1">
          <mxGeometry x="1190" y="370" width="800" height="1030" as="geometry" />
        </mxCell>
        <mxCell id="2Hegsr20NqXobKJcIY7s-32" style="edgeStyle=elbowEdgeStyle;rounded=0;orthogonalLoop=1;jettySize=auto;html=1;endArrow=block;endFill=1;strokeColor=#b85450;fontFamily=Comic Sans MS;fontSize=18;fontColor=#660000;fillColor=#f8cecc;" parent="2Hegsr20NqXobKJcIY7s-1" source="2Hegsr20NqXobKJcIY7s-33" edge="1">
          <mxGeometry relative="1" as="geometry">
            <mxPoint x="751" y="940" as="targetPoint" />
            <Array as="points">
              <mxPoint x="751" y="940" />
            </Array>
          </mxGeometry>
        </mxCell>
        <mxCell id="2Hegsr20NqXobKJcIY7s-33" value="SSH" style="text;html=1;strokeColor=none;fillColor=none;align=center;verticalAlign=middle;whiteSpace=wrap;rounded=0;shadow=0;glass=0;labelBackgroundColor=#F8CECC;fontFamily=Comic Sans MS;fontSize=19;fontColor=#660000;" parent="2Hegsr20NqXobKJcIY7s-1" vertex="1">
          <mxGeometry x="720" y="860" width="70" height="30" as="geometry" />
        </mxCell>
        <mxCell id="2Hegsr20NqXobKJcIY7s-34" style="rounded=0;orthogonalLoop=1;jettySize=auto;html=1;endArrow=block;endFill=1;strokeColor=#b85450;fontFamily=Comic Sans MS;fontSize=14;fontColor=#660000;edgeStyle=elbowEdgeStyle;fillColor=#f8cecc;strokeWidth=3;" parent="2Hegsr20NqXobKJcIY7s-1" source="2Hegsr20NqXobKJcIY7s-37" edge="1">
          <mxGeometry relative="1" as="geometry">
            <mxPoint x="1280" y="996" as="targetPoint" />
            <Array as="points">
              <mxPoint x="1200" y="996" />
            </Array>
          </mxGeometry>
        </mxCell>
        <mxCell id="2Hegsr20NqXobKJcIY7s-35" style="edgeStyle=elbowEdgeStyle;rounded=0;orthogonalLoop=1;jettySize=auto;html=1;endArrow=block;endFill=1;strokeColor=#b85450;fontFamily=Comic Sans MS;fontSize=14;fontColor=#F8CECC;fillColor=#f8cecc;strokeWidth=3;" parent="2Hegsr20NqXobKJcIY7s-1" source="2Hegsr20NqXobKJcIY7s-37" edge="1">
          <mxGeometry relative="1" as="geometry">
            <mxPoint x="1280" y="625" as="targetPoint" />
            <Array as="points">
              <mxPoint x="1152" y="960" />
            </Array>
          </mxGeometry>
        </mxCell>
        <mxCell id="2Hegsr20NqXobKJcIY7s-36" style="edgeStyle=elbowEdgeStyle;rounded=0;orthogonalLoop=1;jettySize=auto;html=1;entryX=0.089;entryY=0.817;entryDx=0;entryDy=0;entryPerimeter=0;endArrow=block;endFill=1;strokeColor=#b85450;fontFamily=Comic Sans MS;fontSize=14;fontColor=#F8CECC;fillColor=#f8cecc;strokeWidth=3;" parent="2Hegsr20NqXobKJcIY7s-1" source="2Hegsr20NqXobKJcIY7s-37" target="2Hegsr20NqXobKJcIY7s-31" edge="1">
          <mxGeometry relative="1" as="geometry">
            <Array as="points">
              <mxPoint x="1150" y="1040" />
              <mxPoint x="1160" y="1040" />
              <mxPoint x="1160" y="1050" />
              <mxPoint x="1150" y="1070" />
            </Array>
          </mxGeometry>
        </mxCell>
        <mxCell id="2Hegsr20NqXobKJcIY7s-37" value="" style="outlineConnect=0;fontColor=#232F3E;gradientColor=none;fillColor=#D05C17;strokeColor=none;dashed=0;verticalLabelPosition=bottom;verticalAlign=top;align=center;html=1;fontSize=12;fontStyle=0;aspect=fixed;pointerEvents=1;shape=mxgraph.aws4.container_1;shadow=0;glass=0;labelBackgroundColor=#F8CECC;" parent="2Hegsr20NqXobKJcIY7s-1" vertex="1">
          <mxGeometry x="910" y="960" width="113.6" height="72.82" as="geometry" />
        </mxCell>
        <mxCell id="2Hegsr20NqXobKJcIY7s-38" value="&lt;h1 style=&quot;font-size: 29px&quot;&gt;Load Balancer Backend Pool&lt;/h1&gt;" style="text;html=1;strokeColor=none;fillColor=none;spacing=5;spacingTop=-20;whiteSpace=wrap;overflow=hidden;rounded=0;shadow=0;glass=0;labelBackgroundColor=#F8CECC;fontFamily=Comic Sans MS;fontSize=31;fontColor=#660000;fontStyle=0;verticalAlign=middle;" parent="2Hegsr20NqXobKJcIY7s-1" vertex="1">
          <mxGeometry x="1250" y="400" width="410" height="70" as="geometry" />
        </mxCell>
        <mxCell id="2Hegsr20NqXobKJcIY7s-39" style="rounded=0;orthogonalLoop=1;jettySize=auto;html=1;endArrow=block;endFill=1;strokeColor=#FF0000;strokeWidth=3;fontFamily=Comic Sans MS;fontSize=22;fontColor=#FF0000;elbow=vertical;" parent="2Hegsr20NqXobKJcIY7s-1" source="2Hegsr20NqXobKJcIY7s-42" target="2Hegsr20NqXobKJcIY7s-49" edge="1">
          <mxGeometry relative="1" as="geometry">
            <mxPoint x="1280" y="873.1268436578171" as="targetPoint" />
          </mxGeometry>
        </mxCell>
        <mxCell id="2Hegsr20NqXobKJcIY7s-40" style="rounded=0;orthogonalLoop=1;jettySize=auto;html=1;endArrow=block;endFill=1;strokeColor=#FF0000;strokeWidth=3;fontFamily=Comic Sans MS;fontSize=22;fontColor=#FF0000;" parent="2Hegsr20NqXobKJcIY7s-1" source="2Hegsr20NqXobKJcIY7s-42" target="2Hegsr20NqXobKJcIY7s-48" edge="1">
          <mxGeometry relative="1" as="geometry" />
        </mxCell>
        <mxCell id="2Hegsr20NqXobKJcIY7s-41" style="rounded=0;orthogonalLoop=1;jettySize=auto;html=1;endArrow=block;endFill=1;strokeColor=#FF0000;strokeWidth=3;fontFamily=Comic Sans MS;fontSize=22;fontColor=#FF0000;" parent="2Hegsr20NqXobKJcIY7s-1" source="2Hegsr20NqXobKJcIY7s-42" target="2Hegsr20NqXobKJcIY7s-50" edge="1">
          <mxGeometry relative="1" as="geometry" />
        </mxCell>
        <mxCell id="2Hegsr20NqXobKJcIY7s-42" value="" style="verticalAlign=top;verticalLabelPosition=bottom;labelPosition=center;align=center;html=1;outlineConnect=0;fillColor=#f8cecc;strokeColor=#b85450;gradientDirection=north;strokeWidth=2;shape=mxgraph.networks.firewall;shadow=0;glass=0;labelBackgroundColor=#F8CECC;" parent="2Hegsr20NqXobKJcIY7s-1" vertex="1">
          <mxGeometry x="657.5" y="672" width="160" height="111" as="geometry" />
        </mxCell>
        <mxCell id="2Hegsr20NqXobKJcIY7s-43" value="HTTP" style="text;html=1;strokeColor=none;fillColor=none;align=center;verticalAlign=middle;whiteSpace=wrap;rounded=0;shadow=0;glass=0;labelBackgroundColor=#F8CECC;fontFamily=Comic Sans MS;fontSize=19;fontColor=#FF0000;fontStyle=1" parent="2Hegsr20NqXobKJcIY7s-1" vertex="1">
          <mxGeometry x="695" y="608" width="60" height="20" as="geometry" />
        </mxCell>
        <mxCell id="2Hegsr20NqXobKJcIY7s-44" value="Ansible Container" style="text;html=1;strokeColor=none;fillColor=none;align=center;verticalAlign=middle;whiteSpace=wrap;rounded=0;shadow=0;glass=0;labelBackgroundColor=#F8CECC;fontFamily=Comic Sans MS;fontSize=17;fontColor=#660000;" parent="2Hegsr20NqXobKJcIY7s-1" vertex="1">
          <mxGeometry x="921.8" y="1050" width="90" height="20" as="geometry" />
        </mxCell>
        <mxCell id="2Hegsr20NqXobKJcIY7s-45" value="SSH" style="text;html=1;strokeColor=none;fillColor=none;align=center;verticalAlign=middle;whiteSpace=wrap;rounded=0;shadow=0;glass=0;labelBackgroundColor=#F8CECC;fontFamily=Comic Sans MS;fontSize=19;fontColor=#660000;rotation=-90;" parent="2Hegsr20NqXobKJcIY7s-1" vertex="1">
          <mxGeometry x="1100" y="785" width="70" height="30" as="geometry" />
        </mxCell>
        <mxCell id="2Hegsr20NqXobKJcIY7s-46" value="SSH" style="text;html=1;strokeColor=none;fillColor=none;align=center;verticalAlign=middle;whiteSpace=wrap;rounded=0;shadow=0;glass=0;labelBackgroundColor=#F8CECC;fontFamily=Comic Sans MS;fontSize=19;fontColor=#660000;rotation=-90;" parent="2Hegsr20NqXobKJcIY7s-1" vertex="1">
          <mxGeometry x="1090" y="1100" width="70" height="30" as="geometry" />
        </mxCell>
        <mxCell id="2Hegsr20NqXobKJcIY7s-47" value="SSH" style="text;html=1;strokeColor=none;fillColor=none;align=center;verticalAlign=middle;whiteSpace=wrap;rounded=0;shadow=0;glass=0;labelBackgroundColor=#F8CECC;fontFamily=Comic Sans MS;fontSize=19;fontColor=#660000;rotation=0;" parent="2Hegsr20NqXobKJcIY7s-1" vertex="1">
          <mxGeometry x="1060" y="955" width="70" height="30" as="geometry" />
        </mxCell>
        <mxCell id="2Hegsr20NqXobKJcIY7s-48" value="" style="pointerEvents=1;shadow=0;dashed=0;html=1;strokeColor=#b85450;fillColor=#f8cecc;labelPosition=center;verticalLabelPosition=bottom;verticalAlign=top;align=center;outlineConnect=0;shape=mxgraph.veeam.2d.esx_esxi;glass=0;labelBackgroundColor=#F8CECC;fontFamily=Comic Sans MS;fontSize=12;sketch=0;" parent="2Hegsr20NqXobKJcIY7s-1" vertex="1">
          <mxGeometry x="1360" y="532.5" width="116.6" height="185" as="geometry" />
        </mxCell>
        <mxCell id="2Hegsr20NqXobKJcIY7s-49" value="" style="pointerEvents=1;shadow=0;dashed=0;html=1;strokeColor=#b85450;fillColor=#f8cecc;labelPosition=center;verticalLabelPosition=bottom;verticalAlign=top;align=center;outlineConnect=0;shape=mxgraph.veeam.2d.esx_esxi;glass=0;labelBackgroundColor=#F8CECC;fontFamily=Comic Sans MS;fontSize=12;" parent="2Hegsr20NqXobKJcIY7s-1" vertex="1">
          <mxGeometry x="1360" y="867.0899999999999" width="116.6" height="185" as="geometry" />
        </mxCell>
        <mxCell id="2Hegsr20NqXobKJcIY7s-50" value="" style="pointerEvents=1;shadow=0;dashed=0;html=1;strokeColor=#b85450;fillColor=#f8cecc;labelPosition=center;verticalLabelPosition=bottom;verticalAlign=top;align=center;outlineConnect=0;shape=mxgraph.veeam.2d.esx_esxi;glass=0;labelBackgroundColor=#F8CECC;fontFamily=Comic Sans MS;fontSize=12;" parent="2Hegsr20NqXobKJcIY7s-1" vertex="1">
          <mxGeometry x="1360" y="1192.5" width="116.6" height="185" as="geometry" />
        </mxCell>
        <mxCell id="2Hegsr20NqXobKJcIY7s-51" value="Web 1 VM&lt;br style=&quot;font-size: 22px&quot;&gt;Allowed IP: 10.0.1.4&lt;br&gt;Containers: DVWA" style="text;html=1;strokeColor=none;fillColor=none;align=center;verticalAlign=middle;whiteSpace=wrap;rounded=0;shadow=0;glass=0;labelBackgroundColor=#F8CECC;fontFamily=Comic Sans MS;fontSize=22;fontColor=#660000;" parent="2Hegsr20NqXobKJcIY7s-1" vertex="1">
          <mxGeometry x="1520" y="549" width="240" height="151" as="geometry" />
        </mxCell>
        <mxCell id="2Hegsr20NqXobKJcIY7s-52" value="Web 2 VM&lt;br style=&quot;font-size: 22px&quot;&gt;Private IP: 10.0.1.5&lt;br&gt;Containers: DVWA" style="text;html=1;strokeColor=none;fillColor=none;align=center;verticalAlign=middle;whiteSpace=wrap;rounded=0;shadow=0;glass=0;labelBackgroundColor=#F8CECC;fontFamily=Comic Sans MS;fontSize=22;fontColor=#660000;" parent="2Hegsr20NqXobKJcIY7s-1" vertex="1">
          <mxGeometry x="1530" y="869.5" width="200" height="151" as="geometry" />
        </mxCell>
        <mxCell id="2Hegsr20NqXobKJcIY7s-53" value="Web 3 VM&lt;br style=&quot;font-size: 22px&quot;&gt;Private IP: 10.0.0.5&lt;br&gt;Containers: DVWA" style="text;html=1;strokeColor=none;fillColor=none;align=center;verticalAlign=middle;whiteSpace=wrap;rounded=0;shadow=0;glass=0;labelBackgroundColor=#F8CECC;fontFamily=Comic Sans MS;fontSize=22;fontColor=#660000;" parent="2Hegsr20NqXobKJcIY7s-1" vertex="1">
          <mxGeometry x="1530" y="1192.5" width="200" height="151" as="geometry" />
        </mxCell>
        <mxCell id="2Hegsr20NqXobKJcIY7s-54" value="HTTP" style="text;html=1;strokeColor=none;fillColor=none;align=center;verticalAlign=middle;whiteSpace=wrap;rounded=0;shadow=0;glass=0;labelBackgroundColor=#F8CECC;fontFamily=Comic Sans MS;fontSize=22;fontColor=#FF0000;fontStyle=1;rotation=-15;" parent="2Hegsr20NqXobKJcIY7s-1" vertex="1">
          <mxGeometry x="970" y="660" width="90" height="20" as="geometry" />
        </mxCell>
        <mxCell id="2Hegsr20NqXobKJcIY7s-55" value="HTTP" style="text;html=1;strokeColor=none;fillColor=none;align=center;verticalAlign=middle;whiteSpace=wrap;rounded=0;shadow=0;glass=0;labelBackgroundColor=#F8CECC;fontFamily=Comic Sans MS;fontSize=22;fontColor=#FF0000;fontStyle=1;rotation=15;" parent="2Hegsr20NqXobKJcIY7s-1" vertex="1">
          <mxGeometry x="960" y="770" width="90" height="20" as="geometry" />
        </mxCell>
        <mxCell id="2Hegsr20NqXobKJcIY7s-56" value="HTTP" style="text;html=1;strokeColor=none;fillColor=none;align=center;verticalAlign=middle;whiteSpace=wrap;rounded=0;shadow=0;glass=0;labelBackgroundColor=#F8CECC;fontFamily=Comic Sans MS;fontSize=22;fontColor=#FF0000;fontStyle=1;rotation=45;" parent="2Hegsr20NqXobKJcIY7s-1" vertex="1">
          <mxGeometry x="921.8000000000001" y="890" width="90" height="20" as="geometry" />
        </mxCell>
        <mxCell id="2Hegsr20NqXobKJcIY7s-57" style="edgeStyle=none;rounded=0;orthogonalLoop=1;jettySize=auto;html=1;exitX=0.5;exitY=0;exitDx=0;exitDy=0;entryX=0.55;entryY=0.95;entryDx=0;entryDy=0;entryPerimeter=0;endArrow=block;endFill=1;strokeColor=#FF0000;strokeWidth=3;fontFamily=Comic Sans MS;fontSize=10;fontColor=#FF0000;" parent="2Hegsr20NqXobKJcIY7s-1" source="2Hegsr20NqXobKJcIY7s-58" target="2Hegsr20NqXobKJcIY7s-10" edge="1">
          <mxGeometry relative="1" as="geometry" />
        </mxCell>
        <mxCell id="2Hegsr20NqXobKJcIY7s-58" value="HTTP" style="text;html=1;strokeColor=none;fillColor=none;align=center;verticalAlign=middle;whiteSpace=wrap;rounded=0;shadow=0;glass=0;labelBackgroundColor=#F8CECC;fontFamily=Comic Sans MS;fontSize=22;fontColor=#FF0000;fontStyle=1" parent="2Hegsr20NqXobKJcIY7s-1" vertex="1">
          <mxGeometry x="280" y="985" width="60" height="20" as="geometry" />
        </mxCell>
        <mxCell id="2Hegsr20NqXobKJcIY7s-59" value="SSH" style="text;html=1;strokeColor=none;fillColor=none;align=center;verticalAlign=middle;whiteSpace=wrap;rounded=0;shadow=0;glass=0;labelBackgroundColor=#F8CECC;fontFamily=Comic Sans MS;fontSize=23;fontColor=#660000;" parent="2Hegsr20NqXobKJcIY7s-1" vertex="1">
          <mxGeometry x="60" y="785" width="70" height="30" as="geometry" />
        </mxCell>
        <mxCell id="2Hegsr20NqXobKJcIY7s-60" style="rounded=0;orthogonalLoop=1;jettySize=auto;elbow=vertical;html=1;endArrow=block;endFill=1;strokeColor=#b85450;fontFamily=Comic Sans MS;fontSize=35;fontColor=#660000;fillColor=#f8cecc;exitX=0.282;exitY=-0.019;exitDx=0;exitDy=0;exitPerimeter=0;" parent="2Hegsr20NqXobKJcIY7s-1" source="2Hegsr20NqXobKJcIY7s-6" target="2Hegsr20NqXobKJcIY7s-59" edge="1">
          <mxGeometry relative="1" as="geometry">
            <mxPoint x="100" y="900" as="sourcePoint" />
            <mxPoint x="205.68000000000006" y="720.9799999999998" as="targetPoint" />
          </mxGeometry>
        </mxCell>
        <mxCell id="-tYl4JRF3hjD-ErTfFmR-1" value="&lt;h1 style=&quot;font-size: 29px;&quot;&gt;US-WEST&lt;/h1&gt;" style="text;html=1;strokeColor=none;fillColor=none;spacing=5;spacingTop=-20;whiteSpace=wrap;overflow=hidden;rounded=0;shadow=0;glass=0;labelBackgroundColor=#F8CECC;fontFamily=Comic Sans MS;fontSize=29;fontColor=#660000;fontStyle=0;verticalAlign=middle;" parent="2Hegsr20NqXobKJcIY7s-1" vertex="1">
          <mxGeometry x="730.89" y="1580" width="210" height="40" as="geometry" />
        </mxCell>
        <mxCell id="-tYl4JRF3hjD-ErTfFmR-4" value="" style="whiteSpace=wrap;html=1;aspect=fixed;shadow=0;glass=0;labelBackgroundColor=#F8CECC;fillColor=#F8CECC;gradientColor=#ffffff;fontFamily=Comic Sans MS;fontSize=12;fontColor=#660000;strokeColor=#B85450;rounded=1;" parent="2Hegsr20NqXobKJcIY7s-1" vertex="1">
          <mxGeometry x="2340" y="150" width="1380" height="1380" as="geometry" />
        </mxCell>
        <mxCell id="-tYl4JRF3hjD-ErTfFmR-5" value="" style="rounded=1;whiteSpace=wrap;html=1;shadow=0;glass=0;labelBackgroundColor=#F8CECC;strokeColor=#B85450;fillColor=#F8CECC;gradientColor=#ffffff;fontFamily=Comic Sans MS;fontSize=18;fontColor=#660000;align=center;" parent="2Hegsr20NqXobKJcIY7s-1" vertex="1">
          <mxGeometry x="2500" y="320" width="1070" height="1090" as="geometry" />
        </mxCell>
        <mxCell id="-tYl4JRF3hjD-ErTfFmR-6" value="&lt;h1 style=&quot;font-size: 35px&quot;&gt;Resource group (Zeinab)&lt;/h1&gt;" style="text;html=1;strokeColor=none;fillColor=none;spacing=5;spacingTop=-20;whiteSpace=wrap;overflow=hidden;rounded=0;shadow=0;glass=0;labelBackgroundColor=#F8CECC;fontFamily=Comic Sans MS;fontSize=35;fontColor=#660000;fontStyle=0;verticalAlign=middle;" parent="2Hegsr20NqXobKJcIY7s-1" vertex="1">
          <mxGeometry x="2460" y="200" width="710" height="70" as="geometry" />
        </mxCell>
        <mxCell id="vcZCROroqDKotfpQatT7-0" value="&lt;h1 style=&quot;font-size: 22px;&quot;&gt;Virtual Network: Project-ELK&lt;/h1&gt;&lt;h1 style=&quot;font-size: 22px;&quot;&gt;Subnets: default - 10.1.0.0/24 (250 available)&amp;nbsp;&lt;/h1&gt;&lt;h1 style=&quot;font-size: 22px;&quot;&gt;IP Address space: 10.1.0.0/16&lt;/h1&gt;" style="text;html=1;strokeColor=none;fillColor=none;spacing=5;spacingTop=-20;whiteSpace=wrap;overflow=hidden;rounded=0;shadow=0;glass=0;labelBackgroundColor=#F8CECC;fontFamily=Comic Sans MS;fontSize=22;fontColor=#660000;fontStyle=0;verticalAlign=middle;" vertex="1" parent="2Hegsr20NqXobKJcIY7s-1">
          <mxGeometry x="2580" y="370" width="720" height="120" as="geometry" />
        </mxCell>
        <mxCell id="vcZCROroqDKotfpQatT7-1" value="&lt;h1 style=&quot;font-size: 29px&quot;&gt;US-EAST&lt;/h1&gt;" style="text;html=1;strokeColor=none;fillColor=none;spacing=5;spacingTop=-20;whiteSpace=wrap;overflow=hidden;rounded=0;shadow=0;glass=0;labelBackgroundColor=#F8CECC;fontFamily=Comic Sans MS;fontSize=29;fontColor=#660000;fontStyle=0;verticalAlign=middle;" vertex="1" parent="2Hegsr20NqXobKJcIY7s-1">
          <mxGeometry x="2550" y="1470" width="210" height="40" as="geometry" />
        </mxCell>
        <mxCell id="vcZCROroqDKotfpQatT7-2" value="" style="pointerEvents=1;shadow=0;dashed=0;html=1;strokeColor=#b85450;fillColor=#f8cecc;labelPosition=center;verticalLabelPosition=bottom;verticalAlign=top;align=center;outlineConnect=0;shape=mxgraph.veeam.2d.esx_esxi;glass=0;labelBackgroundColor=#F8CECC;fontFamily=Comic Sans MS;fontSize=12;sketch=0;" vertex="1" parent="2Hegsr20NqXobKJcIY7s-1">
          <mxGeometry x="2860" y="608.5" width="260" height="401.5" as="geometry" />
        </mxCell>
      </root>
    </mxGraphModel>
  </diagram>
</mxfile>
